<svg width="48" height="48" viewBox="0 0 48 48" fill="none" xmlns="http://www.w3.org/2000/svg">
<g clip-path="url(#clip0_529_20)">
<g clip-path="url(#clip1_529_20)">
<path d="M36.75 0H11.25C5.0368 0 0 5.0368 0 11.25V36.75C0 42.9632 5.0368 48 11.25 48H36.75C42.9632 48 48 42.9632 48 36.75V11.25C48 5.0368 42.9632 0 36.75 0Z" fill="#223843"/>
<path d="M22.7721 5.26009C22.6914 5.26742 22.4347 5.29309 22.2037 5.31141C16.8776 5.79162 11.8886 8.66552 8.72874 13.0827C6.96921 15.5387 5.84385 18.3246 5.41862 21.2755C5.26834 22.3056 5.25 22.6099 5.25 24.0064C5.25 25.4031 5.26834 25.7074 5.41862 26.7373C6.43768 33.7791 11.4487 39.6956 18.2449 41.8877C19.4619 42.28 20.7448 42.5475 22.2037 42.7088C22.7721 42.771 25.2279 42.771 25.7963 42.7088C28.3146 42.4301 30.4479 41.8071 32.5521 40.7329C32.8746 40.5681 32.937 40.524 32.8929 40.4875C32.8637 40.4653 31.4889 38.6215 29.8395 36.3928L26.841 32.3423L23.0835 26.7814C21.0161 23.7242 19.3153 21.2241 19.3005 21.2241C19.2859 21.2205 19.2712 23.6912 19.2639 26.7081C19.2529 31.9903 19.2493 32.203 19.1833 32.3275C19.0881 32.5071 19.0147 32.5804 18.8606 32.6612C18.7434 32.7197 18.6408 32.7308 18.0872 32.7308H17.4531L17.2845 32.6245C17.1745 32.5549 17.0939 32.4632 17.0389 32.3569L16.9619 32.1919L16.9692 24.8423L16.9802 17.4888L17.0938 17.3459C17.1525 17.2689 17.2771 17.1699 17.3651 17.1223C17.5154 17.0489 17.5741 17.0416 18.2082 17.0416C18.9561 17.0416 19.0806 17.0709 19.275 17.2836C19.3299 17.3422 21.3643 20.4068 23.7984 24.0981C26.2324 27.7894 29.5609 32.8298 31.1957 35.304L34.1649 39.802L34.3153 39.703C35.6458 38.8378 37.0536 37.6061 38.1679 36.3231C40.5396 33.5995 42.0682 30.2785 42.5814 26.7373C42.7316 25.7074 42.75 25.4031 42.75 24.0064C42.75 22.6099 42.7316 22.3056 42.5814 21.2755C41.5624 14.2337 36.5512 8.31728 29.7551 6.1252C28.5564 5.73664 27.2809 5.46904 25.8512 5.30775C25.4993 5.2711 23.0762 5.23077 22.7721 5.26009ZM30.4479 16.6017C30.6238 16.6897 30.7669 16.8583 30.8182 17.0343C30.8475 17.1296 30.8548 19.1678 30.8475 23.7608L30.8364 30.3518L29.6745 28.5701L28.5088 26.7887V21.9977C28.5088 18.9002 28.5234 17.1589 28.5454 17.0746C28.6041 16.8693 28.7323 16.7081 28.9084 16.6127C29.0586 16.5358 29.1137 16.5284 29.6891 16.5284C30.2317 16.5284 30.327 16.5358 30.4479 16.6017Z" fill="#EFF1F3"/>
</g>
</g>
<defs>
<clipPath id="clip0_529_20">
<rect width="48" height="48" fill="white"/>
</clipPath>
<clipPath id="clip1_529_20">
<rect width="48" height="48" fill="white"/>
</clipPath>
</defs>
</svg>
