<svg width="48" height="48" viewBox="0 0 48 48" fill="none" xmlns="http://www.w3.org/2000/svg">
<g clip-path="url(#clip0_529_25)">
<g clip-path="url(#clip1_529_25)">
<path d="M36.75 0H11.25C5.0368 0 0 5.0368 0 11.25V36.75C0 42.9632 5.0368 48 11.25 48H36.75C42.9632 48 48 42.9632 48 36.75V11.25C48 5.0368 42.9632 0 36.75 0Z" fill="#223843"/>
<path d="M22.4771 5.83432C23.3994 5.3064 24.6006 5.30405 25.5219 5.83432C30.1573 8.45353 34.7942 11.0687 39.4288 13.6895C40.3007 14.1805 40.8836 15.1507 40.8748 16.1551V31.9136C40.8814 32.9597 40.2407 33.9531 39.321 34.4329C34.7008 37.0378 30.0829 39.6457 25.4634 42.2507C24.5224 42.7888 23.2971 42.7474 22.3851 42.165C21 41.3621 19.6125 40.563 18.2273 39.7609C17.9442 39.5921 17.6251 39.4579 17.4252 39.1834C17.6019 38.9452 17.9178 38.9156 18.1745 38.8116C18.7526 38.6276 19.2838 38.3325 19.8148 38.0462C19.9493 37.9543 20.1131 37.9896 20.2419 38.0717C21.4264 38.7508 22.6005 39.4498 23.7889 40.1224C24.0424 40.2688 24.2991 40.0744 24.5158 39.9536C29.0496 37.3911 33.5889 34.8384 38.1221 32.2751C38.2901 32.1943 38.3829 32.016 38.3693 31.8321C38.3724 26.6336 38.37 21.4344 38.3709 16.236C38.3901 16.0272 38.2693 15.8353 38.0805 15.7498C33.4764 13.1569 28.8744 10.5601 24.2711 7.96654C24.1078 7.85424 23.8924 7.85396 23.7289 7.96569C19.1254 10.5601 14.5245 13.1593 9.92108 15.7521C9.73298 15.8377 9.60675 16.0265 9.62914 16.236C9.62993 21.4344 9.62914 26.6336 9.62914 31.8328C9.61279 32.0167 9.71269 32.1913 9.87949 32.2704C11.1079 32.967 12.338 33.6587 13.5672 34.353C14.2597 34.7256 15.1099 34.9472 15.8729 34.6616C16.5462 34.4201 17.0181 33.7329 17.0053 33.0182C17.0117 27.8501 17.0021 22.6813 17.0101 17.514C16.9933 17.2845 17.2109 17.095 17.4339 17.1166C18.0242 17.1126 18.6152 17.1086 19.2054 17.1182C19.4518 17.1126 19.6213 17.3596 19.5909 17.5908C19.5885 22.7916 19.5973 27.9924 19.587 33.1931C19.5885 34.5793 19.0191 36.0876 17.737 36.7657C16.1576 37.5838 14.2054 37.4104 12.645 36.6259C11.2942 35.9516 10.0051 35.1559 8.67821 34.4336C7.75615 33.9564 7.11863 32.9591 7.12511 31.9138V16.1551C7.11544 15.1299 7.72172 14.1421 8.62058 13.6583C13.24 11.0514 17.8586 8.44239 22.4771 5.83432Z" fill="#EFF1F3"/>
<path d="M26.5073 16.7504C28.5219 16.6206 30.6788 16.6736 32.4917 17.666C33.8955 18.4267 34.6736 20.023 34.6984 21.5824C34.6592 21.7926 34.4393 21.9086 34.2384 21.8942C33.654 21.8935 33.0692 21.9023 32.4848 21.8903C32.2367 21.8998 32.0927 21.6713 32.0616 21.4521C31.8936 20.7058 31.4865 19.9669 30.7843 19.6069C29.7062 19.0673 28.4563 19.0945 27.2807 19.1057C26.4225 19.1511 25.4996 19.2255 24.7725 19.7301C24.2143 20.1124 24.0448 20.8841 24.2439 21.5057C24.4318 21.952 24.9469 22.096 25.3686 22.2287C27.7965 22.8638 30.3694 22.8004 32.751 23.6361C33.7371 23.9768 34.7016 24.6392 35.0391 25.6716C35.4806 27.0553 35.2871 28.7091 34.3026 29.8198C33.5042 30.7339 32.3415 31.2315 31.1818 31.5017C29.6391 31.8458 28.038 31.8546 26.4713 31.7018C24.9981 31.5338 23.4649 31.1468 22.3277 30.1431C21.3551 29.2986 20.8802 27.9827 20.9273 26.713C20.9385 26.4985 21.1521 26.3488 21.3576 26.3665C21.9461 26.3618 22.5349 26.3601 23.1234 26.3674C23.3588 26.3505 23.5329 26.5538 23.5451 26.7754C23.6535 27.4862 23.9207 28.2325 24.5408 28.6538C25.737 29.4257 27.2383 29.3728 28.6082 29.3944C29.7431 29.3441 31.0172 29.329 31.9433 28.5788C32.4319 28.1509 32.5766 27.435 32.4446 26.8193C32.3016 26.2993 31.7576 26.0571 31.2906 25.8986C28.8938 25.1406 26.292 25.4156 23.9184 24.5582C22.9547 24.2177 22.0228 23.5738 21.6527 22.5838C21.1361 21.1826 21.3728 19.4494 22.4604 18.3762C23.5209 17.3085 25.0517 16.8975 26.5073 16.7504Z" fill="#EFF1F3"/>
</g>
</g>
<defs>
<clipPath id="clip0_529_25">
<rect width="48" height="48" fill="white"/>
</clipPath>
<clipPath id="clip1_529_25">
<rect width="48" height="48" fill="white"/>
</clipPath>
</defs>
</svg>
