<svg width="48" height="48" viewBox="0 0 48 48" fill="none" xmlns="http://www.w3.org/2000/svg">
<g clip-path="url(#clip0_529_2)">
<g clip-path="url(#clip1_529_2)">
<path d="M36.75 0H11.25C5.0368 0 0 5.0368 0 11.25V36.75C0 42.9632 5.0368 48 11.25 48H36.75C42.9632 48 48 42.9632 48 36.75V11.25C48 5.0368 42.9632 0 36.75 0Z" fill="#223843"/>
<path fill-rule="evenodd" clip-rule="evenodd" d="M9.8734 30.9718C9.51394 30.4048 9.50853 29.6825 9.85939 29.1101L23.0707 7.55989C23.8055 6.36128 25.5799 6.46608 26.1684 7.74286L38.2376 33.9236C38.6854 34.895 38.1699 36.038 37.1452 36.3455L18.3708 41.9778C17.6155 42.2043 16.8016 41.9008 16.3793 41.2346L9.8734 30.9718ZM24.5949 13.861C24.7222 13.2271 25.5909 13.1356 25.8474 13.7292L34.1726 32.993C34.3294 33.3558 34.1344 33.7742 33.7556 33.887L20.784 37.7593C20.3072 37.9016 19.8504 37.485 19.9485 36.9971L24.5949 13.861Z" fill="#EFF1F3"/>
</g>
</g>
<defs>
<clipPath id="clip0_529_2">
<rect width="48" height="48" fill="white"/>
</clipPath>
<clipPath id="clip1_529_2">
<rect width="48" height="48" fill="white"/>
</clipPath>
</defs>
</svg>
