<svg width="48" height="48" viewBox="0 0 48 48" fill="none" xmlns="http://www.w3.org/2000/svg">
<g clip-path="url(#clip0_529_31)">
<g clip-path="url(#clip1_529_31)">
<path d="M36.75 0H11.25C5.0368 0 0 5.0368 0 11.25V36.75C0 42.9632 5.0368 48 11.25 48H36.75C42.9632 48 48 42.9632 48 36.75V11.25C48 5.0368 42.9632 0 36.75 0Z" fill="#223843"/>
<path d="M10.6146 24.1592L10.5994 26.1249H13.7232H16.847V35.0012V43.8772H19.0566H21.2661V35.0012V26.1249H24.3898H27.5136V24.1972C27.5136 23.1305 27.4909 22.2392 27.4603 22.2163C27.4374 22.1859 23.6355 22.1705 19.026 22.1782L10.6375 22.2011L10.6146 24.1592Z" fill="#EFF1F3"/>
<path d="M38.7313 22.1453C39.9502 22.4502 40.8799 22.9911 41.7332 23.8748C42.1751 24.3473 42.8302 25.2083 42.8837 25.414C42.8989 25.4749 40.8112 26.8769 39.5465 27.6616C39.5008 27.6921 39.3178 27.4939 39.1121 27.1892C38.495 26.2902 37.8474 25.9015 36.8569 25.8331C35.4017 25.7339 34.4645 26.4959 34.4722 27.7682C34.4722 28.1416 34.5255 28.3624 34.6779 28.6673C34.9978 29.3301 35.5922 29.7263 37.4589 30.5339C40.895 32.0121 42.3654 32.9873 43.2799 34.3739C44.3008 35.9205 44.5294 38.3892 43.836 40.2254C43.0742 42.2215 41.1845 43.5777 38.5254 44.0273C37.7027 44.172 35.7521 44.1492 34.8684 43.9892C32.9407 43.6463 31.1122 42.694 29.9846 41.4445C29.5427 40.9568 28.6817 39.6844 28.7351 39.5929C28.7578 39.5625 28.956 39.4407 29.1769 39.3111C29.3902 39.1892 30.198 38.7244 30.9598 38.2825L32.3389 37.4824L32.6284 37.9092C33.0322 38.5262 33.9159 39.372 34.4494 39.6539C35.9807 40.4616 38.0837 40.3472 39.1198 39.4178C39.5617 39.0139 39.7445 38.5949 39.7445 37.9778C39.7445 37.4215 39.6759 37.1777 39.3864 36.7587C39.0131 36.2254 38.2513 35.7758 36.0874 34.8387C33.6112 33.772 32.5445 33.1092 31.5694 32.0577C31.0055 31.4483 30.4721 30.4729 30.2512 29.6577C30.0684 28.9797 30.0227 27.2806 30.1674 26.5949C30.6778 24.2026 32.4836 22.534 35.0893 22.0386C35.9351 21.8787 37.9007 21.9396 38.7313 22.1453Z" fill="#EFF1F3"/>
</g>
</g>
<defs>
<clipPath id="clip0_529_31">
<rect width="48" height="48" fill="white"/>
</clipPath>
<clipPath id="clip1_529_31">
<rect width="48" height="48" fill="white"/>
</clipPath>
</defs>
</svg>
