<svg width="48" height="48" viewBox="0 0 48 48" fill="none" xmlns="http://www.w3.org/2000/svg">
<g clip-path="url(#clip0_529_15)">
<g clip-path="url(#clip1_529_15)">
<path d="M36.75 0H11.25C5.0368 0 0 5.0368 0 11.25V36.75C0 42.9632 5.0368 48 11.25 48H36.75C42.9632 48 48 42.9632 48 36.75V11.25C48 5.0368 42.9632 0 36.75 0Z" fill="#223843"/>
<path fill-rule="evenodd" clip-rule="evenodd" d="M15.5625 20.625C16.6873 16.1252 19.5002 13.875 24 13.875C30.75 13.875 31.5938 18.9375 34.9688 19.7812C37.2189 20.3439 39.1875 19.5002 40.875 17.25C39.7502 21.7498 36.9373 24 32.4375 24C25.6875 24 24.8438 18.9375 21.4688 18.0938C19.2186 17.5311 17.25 18.3748 15.5625 20.625ZM7.125 30.75C8.24983 26.2502 11.0627 24 15.5625 24C22.3125 24 23.1562 29.0625 26.5312 29.9062C28.7814 30.4689 30.75 29.6252 32.4375 27.375C31.3127 31.8748 28.4998 34.125 24 34.125C17.25 34.125 16.4062 29.0625 13.0312 28.2188C10.7811 27.6561 8.8125 28.4998 7.125 30.75Z" fill="#EFF1F3"/>
</g>
</g>
<defs>
<clipPath id="clip0_529_15">
<rect width="48" height="48" fill="white"/>
</clipPath>
<clipPath id="clip1_529_15">
<rect width="48" height="48" fill="white"/>
</clipPath>
</defs>
</svg>
